<mxfile host="app.diagrams.net" modified="2022-01-28T11:56:39.442Z" agent="5.0 (Macintosh; Intel Mac OS X 10_15_7) AppleWebKit/537.36 (KHTML, like Gecko) Chrome/96.0.4664.110 Safari/537.36" etag="0oDCp1zjwXSIXQvC4WaY" version="16.4.11" type="github">
  <diagram id="51556ffRKYwZIfvcrJTu" name="Page-1">
    <mxGraphModel dx="1113" dy="596" grid="1" gridSize="10" guides="1" tooltips="1" connect="1" arrows="1" fold="1" page="1" pageScale="1" pageWidth="827" pageHeight="1169" math="0" shadow="0">
      <root>
        <mxCell id="0" />
        <mxCell id="1" parent="0" />
        <mxCell id="1ReSz27YQc-8HuuTUyZK-1" value="VPC" style="points=[[0,0],[0.25,0],[0.5,0],[0.75,0],[1,0],[1,0.25],[1,0.5],[1,0.75],[1,1],[0.75,1],[0.5,1],[0.25,1],[0,1],[0,0.75],[0,0.5],[0,0.25]];outlineConnect=0;gradientColor=none;html=1;whiteSpace=wrap;fontSize=12;fontStyle=0;container=1;pointerEvents=0;collapsible=0;recursiveResize=0;shape=mxgraph.aws4.group;grIcon=mxgraph.aws4.group_vpc;strokeColor=#248814;fillColor=none;verticalAlign=top;align=left;spacingLeft=30;fontColor=#AAB7B8;dashed=0;" vertex="1" parent="1">
          <mxGeometry x="40" y="130" width="460" height="390" as="geometry" />
        </mxCell>
        <mxCell id="1ReSz27YQc-8HuuTUyZK-33" value="" style="rounded=0;whiteSpace=wrap;html=1;fillColor=none;strokeColor=#67AB9F;" vertex="1" parent="1ReSz27YQc-8HuuTUyZK-1">
          <mxGeometry x="160" y="30" width="170" height="320" as="geometry" />
        </mxCell>
        <mxCell id="1ReSz27YQc-8HuuTUyZK-4" value="Application Load Balancer" style="sketch=0;outlineConnect=0;fontColor=#232F3E;gradientColor=none;strokeColor=#ffffff;fillColor=#232F3E;dashed=0;verticalLabelPosition=middle;verticalAlign=bottom;align=center;html=1;whiteSpace=wrap;fontSize=10;fontStyle=1;spacing=3;shape=mxgraph.aws4.productIcon;prIcon=mxgraph.aws4.application_load_balancer;" vertex="1" parent="1ReSz27YQc-8HuuTUyZK-1">
          <mxGeometry x="360" y="120" width="76.36" height="105" as="geometry" />
        </mxCell>
        <mxCell id="1ReSz27YQc-8HuuTUyZK-5" value="" style="sketch=0;outlineConnect=0;fontColor=#232F3E;gradientColor=none;strokeColor=#ffffff;fillColor=#232F3E;dashed=0;verticalLabelPosition=middle;verticalAlign=bottom;align=center;html=1;whiteSpace=wrap;fontSize=10;fontStyle=1;spacing=3;shape=mxgraph.aws4.productIcon;prIcon=mxgraph.aws4.ec2;" vertex="1" parent="1ReSz27YQc-8HuuTUyZK-1">
          <mxGeometry x="220" y="60" width="60" height="60" as="geometry" />
        </mxCell>
        <mxCell id="1ReSz27YQc-8HuuTUyZK-9" value="Amazon RDS" style="sketch=0;outlineConnect=0;fontColor=#232F3E;gradientColor=none;strokeColor=#ffffff;fillColor=#232F3E;dashed=0;verticalLabelPosition=middle;verticalAlign=bottom;align=center;html=1;whiteSpace=wrap;fontSize=10;fontStyle=1;spacing=3;shape=mxgraph.aws4.productIcon;prIcon=mxgraph.aws4.rds;" vertex="1" parent="1ReSz27YQc-8HuuTUyZK-1">
          <mxGeometry x="40" y="110" width="80" height="100" as="geometry" />
        </mxCell>
        <mxCell id="1ReSz27YQc-8HuuTUyZK-14" value="" style="sketch=0;outlineConnect=0;fontColor=#232F3E;gradientColor=none;strokeColor=#ffffff;fillColor=#232F3E;dashed=0;verticalLabelPosition=middle;verticalAlign=bottom;align=center;html=1;whiteSpace=wrap;fontSize=10;fontStyle=1;spacing=3;shape=mxgraph.aws4.productIcon;prIcon=mxgraph.aws4.ec2;" vertex="1" parent="1ReSz27YQc-8HuuTUyZK-1">
          <mxGeometry x="220" y="140" width="60" height="60" as="geometry" />
        </mxCell>
        <mxCell id="1ReSz27YQc-8HuuTUyZK-15" value="" style="sketch=0;outlineConnect=0;fontColor=#232F3E;gradientColor=none;strokeColor=#ffffff;fillColor=#232F3E;dashed=0;verticalLabelPosition=middle;verticalAlign=bottom;align=center;html=1;whiteSpace=wrap;fontSize=10;fontStyle=1;spacing=3;shape=mxgraph.aws4.productIcon;prIcon=mxgraph.aws4.ec2;" vertex="1" parent="1ReSz27YQc-8HuuTUyZK-1">
          <mxGeometry x="220" y="220" width="60" height="60" as="geometry" />
        </mxCell>
        <mxCell id="1ReSz27YQc-8HuuTUyZK-19" value="" style="endArrow=classic;html=1;rounded=0;entryX=1;entryY=0.25;entryDx=0;entryDy=0;" edge="1" parent="1ReSz27YQc-8HuuTUyZK-1" source="1ReSz27YQc-8HuuTUyZK-4" target="1ReSz27YQc-8HuuTUyZK-16">
          <mxGeometry width="50" height="50" relative="1" as="geometry">
            <mxPoint x="270" y="250" as="sourcePoint" />
            <mxPoint x="320" y="200" as="targetPoint" />
          </mxGeometry>
        </mxCell>
        <mxCell id="1ReSz27YQc-8HuuTUyZK-21" value="" style="endArrow=classic;html=1;rounded=0;entryX=1;entryY=0.75;entryDx=0;entryDy=0;" edge="1" parent="1ReSz27YQc-8HuuTUyZK-1" source="1ReSz27YQc-8HuuTUyZK-4" target="1ReSz27YQc-8HuuTUyZK-16">
          <mxGeometry width="50" height="50" relative="1" as="geometry">
            <mxPoint x="270" y="250" as="sourcePoint" />
            <mxPoint x="320" y="200" as="targetPoint" />
          </mxGeometry>
        </mxCell>
        <mxCell id="1ReSz27YQc-8HuuTUyZK-22" value="" style="endArrow=classic;html=1;rounded=0;entryX=1;entryY=0.5;entryDx=0;entryDy=0;" edge="1" parent="1ReSz27YQc-8HuuTUyZK-1" source="1ReSz27YQc-8HuuTUyZK-4" target="1ReSz27YQc-8HuuTUyZK-16">
          <mxGeometry width="50" height="50" relative="1" as="geometry">
            <mxPoint x="270" y="250" as="sourcePoint" />
            <mxPoint x="320" y="200" as="targetPoint" />
          </mxGeometry>
        </mxCell>
        <mxCell id="1ReSz27YQc-8HuuTUyZK-16" value="" style="rounded=1;whiteSpace=wrap;html=1;fillColor=none;dashed=1;" vertex="1" parent="1ReSz27YQc-8HuuTUyZK-1">
          <mxGeometry x="190" y="40" width="120" height="260" as="geometry" />
        </mxCell>
        <mxCell id="1ReSz27YQc-8HuuTUyZK-25" value="" style="endArrow=classic;html=1;rounded=0;exitX=-0.011;exitY=0.424;exitDx=0;exitDy=0;entryX=1.004;entryY=0.403;entryDx=0;entryDy=0;entryPerimeter=0;exitPerimeter=0;" edge="1" parent="1ReSz27YQc-8HuuTUyZK-1" source="1ReSz27YQc-8HuuTUyZK-16" target="1ReSz27YQc-8HuuTUyZK-9">
          <mxGeometry width="50" height="50" relative="1" as="geometry">
            <mxPoint x="270" y="250" as="sourcePoint" />
            <mxPoint x="320" y="200" as="targetPoint" />
          </mxGeometry>
        </mxCell>
        <mxCell id="1ReSz27YQc-8HuuTUyZK-32" value="Autoscaling group" style="text;html=1;strokeColor=none;fillColor=none;align=center;verticalAlign=middle;whiteSpace=wrap;rounded=0;dashed=1;" vertex="1" parent="1ReSz27YQc-8HuuTUyZK-1">
          <mxGeometry x="195" y="300" width="110" height="30" as="geometry" />
        </mxCell>
        <mxCell id="1ReSz27YQc-8HuuTUyZK-60" value="" style="rounded=0;whiteSpace=wrap;html=1;fillColor=none;strokeColor=#67AB9F;" vertex="1" parent="1ReSz27YQc-8HuuTUyZK-1">
          <mxGeometry x="260" y="30" width="170" height="320" as="geometry" />
        </mxCell>
        <mxCell id="1ReSz27YQc-8HuuTUyZK-61" value="" style="rounded=0;whiteSpace=wrap;html=1;fillColor=none;strokeColor=#67AB9F;" vertex="1" parent="1ReSz27YQc-8HuuTUyZK-1">
          <mxGeometry x="20" y="30" width="170" height="320" as="geometry" />
        </mxCell>
        <mxCell id="1ReSz27YQc-8HuuTUyZK-2" value="Amazon Cloudfront" style="sketch=0;outlineConnect=0;fontColor=#232F3E;gradientColor=none;strokeColor=#ffffff;fillColor=#232F3E;dashed=0;verticalLabelPosition=middle;verticalAlign=bottom;align=center;html=1;whiteSpace=wrap;fontSize=10;fontStyle=1;spacing=3;shape=mxgraph.aws4.productIcon;prIcon=mxgraph.aws4.cloudfront;" vertex="1" parent="1">
          <mxGeometry x="585" y="160" width="80" height="110" as="geometry" />
        </mxCell>
        <mxCell id="1ReSz27YQc-8HuuTUyZK-3" value="Amazon S3" style="sketch=0;outlineConnect=0;fontColor=#232F3E;gradientColor=none;strokeColor=#ffffff;fillColor=#232F3E;dashed=0;verticalLabelPosition=middle;verticalAlign=bottom;align=center;html=1;whiteSpace=wrap;fontSize=10;fontStyle=1;spacing=3;shape=mxgraph.aws4.productIcon;prIcon=mxgraph.aws4.s3;" vertex="1" parent="1">
          <mxGeometry x="585" y="330" width="80" height="100" as="geometry" />
        </mxCell>
        <mxCell id="1ReSz27YQc-8HuuTUyZK-31" value="" style="edgeStyle=orthogonalEdgeStyle;rounded=0;orthogonalLoop=1;jettySize=auto;html=1;" edge="1" parent="1" source="1ReSz27YQc-8HuuTUyZK-8" target="1ReSz27YQc-8HuuTUyZK-10">
          <mxGeometry relative="1" as="geometry" />
        </mxCell>
        <mxCell id="1ReSz27YQc-8HuuTUyZK-8" value="" style="outlineConnect=0;dashed=0;verticalLabelPosition=bottom;verticalAlign=top;align=center;html=1;shape=mxgraph.aws3.users;fillColor=#D2D3D3;gradientColor=none;" vertex="1" parent="1">
          <mxGeometry x="750" y="258.5" width="66" height="63" as="geometry" />
        </mxCell>
        <mxCell id="1ReSz27YQc-8HuuTUyZK-29" style="edgeStyle=orthogonalEdgeStyle;rounded=0;orthogonalLoop=1;jettySize=auto;html=1;entryX=1;entryY=0.5;entryDx=0;entryDy=0;" edge="1" parent="1" source="1ReSz27YQc-8HuuTUyZK-10" target="1ReSz27YQc-8HuuTUyZK-1">
          <mxGeometry relative="1" as="geometry" />
        </mxCell>
        <mxCell id="1ReSz27YQc-8HuuTUyZK-10" value="" style="rounded=1;whiteSpace=wrap;html=1;fillColor=none;" vertex="1" parent="1">
          <mxGeometry x="560" y="145" width="130" height="320" as="geometry" />
        </mxCell>
        <mxCell id="1ReSz27YQc-8HuuTUyZK-7" value="Amazon S3" style="sketch=0;outlineConnect=0;fontColor=#232F3E;gradientColor=none;strokeColor=#ffffff;fillColor=#232F3E;dashed=0;verticalLabelPosition=middle;verticalAlign=bottom;align=center;html=1;whiteSpace=wrap;fontSize=10;fontStyle=1;spacing=3;shape=mxgraph.aws4.productIcon;prIcon=mxgraph.aws4.s3;" vertex="1" parent="1">
          <mxGeometry x="250" width="80" height="100" as="geometry" />
        </mxCell>
        <mxCell id="1ReSz27YQc-8HuuTUyZK-26" value="" style="endArrow=classic;html=1;rounded=0;exitX=0.5;exitY=0;exitDx=0;exitDy=0;" edge="1" parent="1" source="1ReSz27YQc-8HuuTUyZK-16" target="1ReSz27YQc-8HuuTUyZK-7">
          <mxGeometry width="50" height="50" relative="1" as="geometry">
            <mxPoint x="230" y="220" as="sourcePoint" />
            <mxPoint x="360" y="320" as="targetPoint" />
          </mxGeometry>
        </mxCell>
      </root>
    </mxGraphModel>
  </diagram>
</mxfile>
